<?xml version="1.0" encoding="UTF-8"?>
<!DOCTYPE svg PUBLIC "-//W3C//DTD SVG 1.1//EN" "http://www.w3.org/Graphics/SVG/1.1/DTD/svg11.dtd">
<svg xmlns="http://www.w3.org/2000/svg" version="1.1" width="600px" height="600px" style="shape-rendering:geometricPrecision; text-rendering:geometricPrecision; image-rendering:optimizeQuality; fill-rule:evenodd; clip-rule:evenodd" xmlns:xlink="http://www.w3.org/1999/xlink">
<g><path style="opacity:1" fill="#fef100" d="M -0.5,-0.5 C 199.5,-0.5 399.5,-0.5 599.5,-0.5C 599.5,199.5 599.5,399.5 599.5,599.5C 399.5,599.5 199.5,599.5 -0.5,599.5C -0.5,399.5 -0.5,199.5 -0.5,-0.5 Z"/></g>
<g><path style="opacity:1" fill="#f9ae1a" d="M 241.5,216.5 C 242.706,215.12 242.373,213.953 240.5,213C 235.458,209.295 229.958,206.461 224,204.5C 215.155,208.674 206.655,213.508 198.5,219C 199.5,220 200.5,221 201.5,222C 206.393,226.401 211.393,230.568 216.5,234.5C 213.662,238.172 211.329,242.172 209.5,246.5C 202.804,238.472 195.137,231.472 186.5,225.5C 174.668,232.248 163.001,239.248 151.5,246.5C 159.967,261.463 168.634,276.296 177.5,291C 179.289,291.52 180.956,291.187 182.5,290C 190.194,285.488 197.861,280.988 205.5,276.5C 206.992,280.264 207.992,284.264 208.5,288.5C 200.649,293.505 192.649,298.338 184.5,303C 190.8,314.443 197.467,325.609 204.5,336.5C 203.957,336.56 203.624,336.893 203.5,337.5C 204.828,346.764 205.495,356.097 205.5,365.5C 201.905,367.102 198.571,369.102 195.5,371.5C 173.221,384.31 150.888,397.143 128.5,410C 122.321,409.412 116.988,406.912 112.5,402.5C 115.46,399.355 118.793,396.688 122.5,394.5C 123.765,395.479 125.099,396.479 126.5,397.5C 135.454,392.529 144.12,387.195 152.5,381.5C 150.408,379.395 148.075,377.728 145.5,376.5C 148.862,372.808 152.195,369.141 155.5,365.5C 157.22,368.731 159.553,371.564 162.5,374C 163.833,374.667 165.167,374.667 166.5,374C 177.833,367.333 189.167,360.667 200.5,354C 191.626,339.083 182.626,324.25 173.5,309.5C 163.893,314.455 154.893,320.122 146.5,326.5C 146.103,325.475 145.437,325.308 144.5,326C 121.997,339.419 99.3305,352.586 76.5,365.5C 73.1984,361.028 70.5317,356.195 68.5,351C 71.7104,348.283 75.0437,345.783 78.5,343.5C 79.2371,345.305 80.2371,346.971 81.5,348.5C 92.3302,342.586 102.997,336.419 113.5,330C 111.693,326.885 110.027,323.719 108.5,320.5C 111.041,316.748 114.041,313.415 117.5,310.5C 119.597,315.032 121.931,319.365 124.5,323.5C 139.163,315.504 153.497,307.004 167.5,298C 158.374,282.916 149.374,267.749 140.5,252.5C 133.806,256.511 127.139,260.511 120.5,264.5C 100.058,275.89 79.7251,287.557 59.5,299.5C 58.2793,293.807 58.4459,288.14 60,282.5C 64.5939,278.46 69.4272,274.794 74.5,271.5C 73.9862,273.512 73.8195,275.512 74,277.5C 79.9189,273.456 86.0855,269.789 92.5,266.5C 93.8032,263.355 93.8032,260.355 92.5,257.5C 96.5,252.833 100.833,248.5 105.5,244.5C 105.334,249.179 105.501,253.845 106,258.5C 115.583,252.959 125.083,247.293 134.5,241.5C 129.532,232.703 124.366,224.036 119,215.5C 113.03,220.77 109.864,227.104 109.5,234.5C 104.234,237.47 98.9004,240.47 93.5,243.5C 94.212,240.125 94.712,236.791 95,233.5C 91.2801,238.38 87.7801,243.38 84.5,248.5C 78.6467,252.017 72.8134,255.683 67,259.5C 79.6227,225.875 102.789,202.375 136.5,189C 165.205,178.895 193.872,179.062 222.5,189.5C 230.401,185.881 238.068,181.714 245.5,177C 248.918,176.351 250.251,177.851 249.5,181.5C 249.534,184.433 248.701,187.1 247,189.5C 243.922,191.955 240.756,194.289 237.5,196.5C 244.756,200.762 251.423,205.762 257.5,211.5C 251.86,212.381 246.526,214.048 241.5,216.5 Z"/></g>
<g><path style="opacity:1" fill="#1972b9" d="M 162.5,194.5 C 172.172,194.334 181.839,194.5 191.5,195C 197.355,195.338 203.022,196.504 208.5,198.5C 201.733,202.633 194.899,206.633 188,210.5C 178.4,204.45 168.233,199.616 157.5,196C 159.382,195.802 161.048,195.302 162.5,194.5 Z"/></g>
<g><path style="opacity:1" fill="#1372ba" d="M 241.5,216.5 C 231.486,220.182 223.153,226.182 216.5,234.5C 211.393,230.568 206.393,226.401 201.5,222C 200.5,221 199.5,220 198.5,219C 206.655,213.508 215.155,208.674 224,204.5C 229.958,206.461 235.458,209.295 240.5,213C 242.373,213.953 242.706,215.12 241.5,216.5 Z"/></g>
<g><path style="opacity:1" fill="#1572b9" d="M 136.5,206.5 C 150.759,206.199 163.759,210.032 175.5,218C 165.63,224.033 155.63,229.866 145.5,235.5C 140.167,226.833 134.833,218.167 129.5,209.5C 131.764,208.131 134.097,207.131 136.5,206.5 Z"/></g>
<g><path style="opacity:1" fill="#1773b9" d="M 105.5,244.5 C 109.255,239.24 113.589,234.406 118.5,230C 115.341,230.913 112.341,232.413 109.5,234.5C 109.864,227.104 113.03,220.77 119,215.5C 124.366,224.036 129.532,232.703 134.5,241.5C 125.083,247.293 115.583,252.959 106,258.5C 105.501,253.845 105.334,249.179 105.5,244.5 Z"/></g>
<g><path style="opacity:1" fill="#0872bb" d="M 215.5,361.5 C 215.198,358.941 215.532,356.607 216.5,354.5C 226.67,359.613 237.337,363.446 248.5,366C 257.787,367.483 267.121,367.816 276.5,367C 289.246,363.277 293.746,355.11 290,342.5C 288.207,339.705 286.04,337.205 283.5,335C 268.199,326.347 252.865,317.681 237.5,309C 218.853,294.722 212.353,276.222 218,253.5C 226.559,234.298 241.393,223.465 262.5,221C 281.778,219.325 300.778,220.825 319.5,225.5C 320.464,234.844 320.464,244.177 319.5,253.5C 306.327,246.54 292.327,243.706 277.5,245C 259.561,252.239 257.894,262.239 272.5,275C 288.004,284.253 303.67,293.253 319.5,302C 337.406,318.126 342.24,337.626 334,360.5C 326.435,375.393 314.601,385.226 298.5,390C 270.436,397.539 243.436,394.706 217.5,381.5C 216.549,374.857 215.883,368.19 215.5,361.5 Z"/></g>
<g><path style="opacity:1" fill="#6ca86c" d="M 538.5,223.5 C 516.993,223.169 495.66,223.503 474.5,224.5C 473.957,224.44 473.624,224.107 473.5,223.5C 495.33,222.172 516.996,222.172 538.5,223.5 Z"/></g>
<g><path style="opacity:1" fill="#0372bb" d="M 435.5,252.5 C 430.36,251.512 425.026,251.179 419.5,251.5C 419.168,292.337 419.501,333.003 420.5,373.5C 420.912,379.987 423.245,385.653 427.5,390.5C 406.673,391.497 385.673,391.831 364.5,391.5C 368.325,386.848 370.825,381.514 372,375.5C 372.5,334.168 372.667,292.835 372.5,251.5C 357.737,250.392 343.903,253.392 331,260.5C 333.349,248.1 336.183,235.766 339.5,223.5C 380.505,223.167 421.505,223.5 462.5,224.5C 459.776,236.51 456.943,248.51 454,260.5C 448.971,255.236 442.804,252.569 435.5,252.5 Z"/></g>
<g><path style="opacity:1" fill="#0472bb" d="M 474.5,224.5 C 495.66,223.503 516.993,223.169 538.5,223.5C 533.504,228.829 530.67,235.162 530,242.5C 529.333,285.833 529.333,329.167 530,372.5C 530.652,379.666 533.485,385.666 538.5,390.5C 517.167,391.833 495.833,391.833 474.5,390.5C 479.155,385.851 481.655,380.185 482,373.5C 482.667,328.167 482.667,282.833 482,237.5C 480.511,232.514 478.011,228.181 474.5,224.5 Z"/></g>
<g><path style="opacity:1" fill="#0b72bb" d="M 209.5,246.5 C 206.1,256.179 204.767,266.179 205.5,276.5C 197.861,280.988 190.194,285.488 182.5,290C 180.956,291.187 179.289,291.52 177.5,291C 168.634,276.296 159.967,261.463 151.5,246.5C 163.001,239.248 174.668,232.248 186.5,225.5C 195.137,231.472 202.804,238.472 209.5,246.5 Z"/></g>
<g><path style="opacity:1" fill="#2d75b5" d="M 93.5,243.5 C 90.669,245.417 87.669,247.083 84.5,248.5C 87.7801,243.38 91.2801,238.38 95,233.5C 94.712,236.791 94.212,240.125 93.5,243.5 Z"/></g>
<g><path style="opacity:1" fill="#0b72bb" d="M 117.5,310.5 C 121.59,304.905 126.256,299.739 131.5,295C 125.957,297.772 120.29,300.605 114.5,303.5C 111.715,295.359 109.715,287.026 108.5,278.5C 112.874,274.128 116.874,269.461 120.5,264.5C 127.139,260.511 133.806,256.511 140.5,252.5C 149.374,267.749 158.374,282.916 167.5,298C 153.497,307.004 139.163,315.504 124.5,323.5C 121.931,319.365 119.597,315.032 117.5,310.5 Z"/></g>
<g><path style="opacity:1" fill="#bfcd3a" d="M 435.5,252.5 C 430.5,252.5 425.5,252.5 420.5,252.5C 420.5,292.833 420.5,333.167 420.5,373.5C 419.501,333.003 419.168,292.337 419.5,251.5C 425.026,251.179 430.36,251.512 435.5,252.5 Z"/></g>
<g><path style="opacity:1" fill="#3074b5" d="M 92.5,257.5 C 93.8032,260.355 93.8032,263.355 92.5,266.5C 86.0855,269.789 79.9189,273.456 74,277.5C 73.8195,275.512 73.9862,273.512 74.5,271.5C 80.1897,266.482 86.1897,261.815 92.5,257.5 Z"/></g>
<g><path style="opacity:1" fill="#f6ae1f" d="M 108.5,278.5 C 109.715,287.026 111.715,295.359 114.5,303.5C 111.039,306.069 107.372,308.403 103.5,310.5C 101.674,303.696 99.6739,297.029 97.5,290.5C 101.176,286.459 104.843,282.459 108.5,278.5 Z"/></g>
<g><path style="opacity:1" fill="#0c72bb" d="M 208.5,288.5 C 212.46,299.888 219.46,309.054 229.5,316C 235.074,319.76 240.741,323.26 246.5,326.5C 237.114,333.195 227.114,338.861 216.5,343.5C 212.5,341.167 208.5,338.833 204.5,336.5C 197.467,325.609 190.8,314.443 184.5,303C 192.649,298.338 200.649,293.505 208.5,288.5 Z"/></g>
<g><path style="opacity:1" fill="#1272ba" d="M 97.5,290.5 C 99.6739,297.029 101.674,303.696 103.5,310.5C 93.4829,316.195 83.4829,321.861 73.5,327.5C 71.8754,321.97 71.2088,316.303 71.5,310.5C 79.8575,303.481 88.5242,296.815 97.5,290.5 Z"/></g>
<g><path style="opacity:1" fill="#0c72bb" d="M 155.5,365.5 C 159.769,360.729 164.269,356.062 169,351.5C 169.667,350.833 169.667,350.167 169,349.5C 162.851,353.824 156.351,357.49 149.5,360.5C 143.303,354.311 138.303,347.311 134.5,339.5C 138.472,335.193 142.472,330.859 146.5,326.5C 154.893,320.122 163.893,314.455 173.5,309.5C 182.626,324.25 191.626,339.083 200.5,354C 189.167,360.667 177.833,367.333 166.5,374C 165.167,374.667 163.833,374.667 162.5,374C 159.553,371.564 157.22,368.731 155.5,365.5 Z"/></g>
<g><path style="opacity:1" fill="#f8ae1c" d="M 71.5,310.5 C 71.2088,316.303 71.8754,321.97 73.5,327.5C 70.4685,329.835 67.1352,331.835 63.5,333.5C 61.4148,329.416 60.0814,325.082 59.5,320.5C 63.0817,316.703 67.0817,313.37 71.5,310.5 Z"/></g>
<g><path style="opacity:1" fill="#1672ba" d="M 108.5,320.5 C 110.027,323.719 111.693,326.885 113.5,330C 102.997,336.419 92.3302,342.586 81.5,348.5C 80.2371,346.971 79.2371,345.305 78.5,343.5C 88.1011,335.36 98.1011,327.693 108.5,320.5 Z"/></g>
<g><path style="opacity:1" fill="#f9af19" d="M 246.5,326.5 C 252.352,328.928 258.019,331.594 263.5,334.5C 262.527,336.948 262.194,339.615 262.5,342.5C 262.5,347.833 262.5,353.167 262.5,358.5C 258.21,358.802 254.21,358.136 250.5,356.5C 250.829,350.794 250.495,345.128 249.5,339.5C 243.436,343.192 237.436,346.859 231.5,350.5C 226.132,348.722 221.132,346.389 216.5,343.5C 227.114,338.861 237.114,333.195 246.5,326.5 Z"/></g>
<g><path style="opacity:1" fill="#1072bb" d="M 263.5,334.5 C 269.067,337.082 274.067,340.416 278.5,344.5C 276.201,349.147 273.868,353.814 271.5,358.5C 270.833,358.5 270.167,358.5 269.5,358.5C 267.5,358.5 265.5,358.5 263.5,358.5C 263.821,352.974 263.488,347.64 262.5,342.5C 262.194,339.615 262.527,336.948 263.5,334.5 Z"/></g>
<g><path style="opacity:1" fill="#1c73b8" d="M 250.5,356.5 C 243.902,355.3 237.569,353.3 231.5,350.5C 237.436,346.859 243.436,343.192 249.5,339.5C 250.495,345.128 250.829,350.794 250.5,356.5 Z"/></g>
<g><path style="opacity:1" fill="#f8ae1c" d="M 134.5,339.5 C 138.303,347.311 143.303,354.311 149.5,360.5C 146.378,363.568 142.711,365.902 138.5,367.5C 134.505,361.182 129.839,355.516 124.5,350.5C 127.862,346.808 131.195,343.141 134.5,339.5 Z"/></g>
<g><path style="opacity:1" fill="#f6af1e" d="M 278.5,344.5 C 283.295,352.249 280.962,356.916 271.5,358.5C 273.868,353.814 276.201,349.147 278.5,344.5 Z"/></g>
<g><path style="opacity:1" fill="#0f72bb" d="M 124.5,350.5 C 129.839,355.516 134.505,361.182 138.5,367.5C 128.797,373.685 118.797,379.352 108.5,384.5C 104.167,380.833 100.167,376.833 96.5,372.5C 105.522,364.816 114.855,357.483 124.5,350.5 Z"/></g>
<g><path style="opacity:1" fill="#689283" d="M 262.5,342.5 C 263.488,347.64 263.821,352.974 263.5,358.5C 265.5,358.5 267.5,358.5 269.5,358.5C 267.167,359.833 264.833,359.833 262.5,358.5C 262.5,353.167 262.5,347.833 262.5,342.5 Z"/></g>
<g><path style="opacity:1" fill="#95b662" d="M 216.5,354.5 C 215.532,356.607 215.198,358.941 215.5,361.5C 214.2,358.976 214.2,356.309 215.5,353.5C 216.107,353.624 216.44,353.957 216.5,354.5 Z"/></g>
<g><path style="opacity:1" fill="#1873b9" d="M 205.5,365.5 C 206.969,372.95 207.803,380.617 208,388.5C 210.304,390.068 212.804,391.235 215.5,392C 212.778,394.358 209.778,396.191 206.5,397.5C 197.362,395.925 189.362,392.259 182.5,386.5C 187.207,381.795 191.54,376.795 195.5,371.5C 198.571,369.102 201.905,367.102 205.5,365.5 Z"/></g>
<g><path style="opacity:1" fill="#f9af19" d="M 96.5,372.5 C 100.167,376.833 104.167,380.833 108.5,384.5C 105.067,387.059 101.401,389.392 97.5,391.5C 94.0156,387.515 90.349,383.682 86.5,380C 89.6842,377.248 93.0175,374.748 96.5,372.5 Z"/></g>
<g><path style="opacity:1" fill="#1e73b9" d="M 145.5,376.5 C 148.075,377.728 150.408,379.395 152.5,381.5C 144.12,387.195 135.454,392.529 126.5,397.5C 125.099,396.479 123.765,395.479 122.5,394.5C 129.946,388.27 137.613,382.27 145.5,376.5 Z"/></g>
<g><path style="opacity:1" fill="#f8ae1b" d="M 182.5,386.5 C 189.362,392.259 197.362,395.925 206.5,397.5C 201.701,400.737 196.701,403.737 191.5,406.5C 185.124,403.702 178.791,400.702 172.5,397.5C 175.862,393.808 179.195,390.141 182.5,386.5 Z"/></g>
<g><path style="opacity:1" fill="#569887" d="M 427.5,390.5 C 428.043,390.56 428.376,390.893 428.5,391.5C 417.667,391.833 406.833,392.167 396,392.5C 384.758,392.511 374.258,392.178 364.5,391.5C 385.673,391.831 406.673,391.497 427.5,390.5 Z"/></g>
<g><path style="opacity:1" fill="#9dc048" d="M 474.5,390.5 C 495.833,391.833 517.167,391.833 538.5,390.5C 539.043,390.56 539.376,390.893 539.5,391.5C 517.5,392.833 495.5,392.833 473.5,391.5C 473.624,390.893 473.957,390.56 474.5,390.5 Z"/></g>
<g><path style="opacity:1" fill="#fcaf16" d="M 228.5,396.5 C 234.479,398.151 240.479,399.818 246.5,401.5C 231.661,411.925 215.328,418.425 197.5,421C 207.903,412.814 218.236,404.647 228.5,396.5 Z"/></g>
<g><path style="opacity:1" fill="#1f73b8" d="M 172.5,397.5 C 178.791,400.702 185.124,403.702 191.5,406.5C 189.117,408.358 186.45,409.692 183.5,410.5C 177.158,410.666 170.825,410.5 164.5,410C 162.292,409.809 160.292,409.309 158.5,408.5C 162.765,404.362 167.431,400.695 172.5,397.5 Z"/></g>
<g><path style="opacity:1" fill="#fbaf17" d="M 158.5,408.5 C 160.292,409.309 162.292,409.809 164.5,410C 170.825,410.5 177.158,410.666 183.5,410.5C 179.574,413.807 175.24,416.64 170.5,419C 162.129,422.076 153.795,421.743 145.5,418C 149.508,414.335 153.841,411.168 158.5,408.5 Z"/></g>
</svg>
